<svg xmlns="http://www.w3.org/2000/svg" id="Layer_1" viewBox="0 0 16 16"><rect width="16" height="16" style="fill:#0b0b0b"/><path d="m5.60645,9.2832h-2.01465l-.36035,1.06348h-1.52686l2.12744-5.74121h1.6543l2.10352,5.74121h-1.63184l-.35156-1.06348Zm-1.60742-1.19189h1.21582l-.59961-1.82275-.61621,1.82275Z" style="fill:#fff"/><path d="m9.45605,10.34668h-1.36816v-4.30225h1.25586v.75977c.32812-.50391,1.00781-.7915,1.69531-.7915v1.42334c-.96777-.09619-1.58301-.02441-1.58301.92725v1.9834Z" style="fill:#fff"/><path d="m12.60156,11.62695l.42383-2.44824h1.14355l-.60742,2.44824h-.95996Zm.83984-4.41699c-.19727,0-.35938-.06396-.48438-.19189s-.1875-.28809-.1875-.47998.06348-.35205.19141-.47998.28809-.19189.48047-.19189h.16016c.19141,0,.35156.06396.47949.19189s.19238.28809.19238.47998-.06348.35205-.18848.47998-.28613.19189-.4834.19189h-.16016Z" style="fill:#fff"/></svg>